<?xml version="1.0" encoding="UTF-8" standalone="no"?>
<svg
   xmlns="http://www.w3.org/2000/svg"
   width="400mm"
   height="400mm"
   viewBox="0 0 512 512"
   version="1.1">
  
  <g fill="#bab468" fill-rule="evenodd">
    <path d="M485.5,217.5l-44.5-9.3c-3.1-16.7-8.6-32.5-16.3-47.1l29.4-34.9c9.3-11,8.3-27.4-2.3-37.3l-34.5-31.1
    c-10.4-9.3-26.6-9.1-36.8,0.7l-32.9,31.5c-13.8-9-28.7-16.1-44.6-20.9l-11.8-44.1C288.5,9.6,274.6,0,259.2,0h-46.3
    c-15.4,0-29.3,9.6-32.1,24.9L169,69c-15.9,4.8-30.8,11.9-44.6,20.9l-32.9-31.5c-10.2-9.8-26.4-10-36.8-0.7l-34.5,31.1
    c-10.6,9.9-11.6,26.3-2.3,37.3l29.4,34.9c-7.7,14.6-13.2,30.4-16.3,47.1l-44.5,9.3C11,220.1,0,233.5,0,249.2v41.6
    c0,15.7,11,29.1,26.4,31.7l44.5,9.3c3.1,16.7,8.6,32.5,16.3,47.1l-29.4,34.9c-9.3,11-8.3,27.4,2.3,37.3l34.5,31.1
    c10.4,9.3,26.6,9.1,36.8-0.7l32.9-31.5c13.8,9,28.7,16.1,44.6,20.9l11.8,44.1c2.8,15.3,16.7,24.9,32.1,24.9h46.3
    c15.4,0,29.3-9.6,32.1-24.9l11.8-44.1c15.9-4.8,30.8-11.9,44.6-20.9l32.9,31.5c10.2,9.8,26.4,10,36.8,0.7l34.5-31.1
    c10.6-9.9,11.6-26.3,2.3-37.3l-29.4-34.9c7.7-14.6,13.2-30.4,16.3-47.1l44.5-9.3c15.4-2.6,26.4-16,26.4-31.7v-41.6
    C512,233.5,501,220.1,485.5,217.5z M256,430 a174,174 0 1,0 0,-348 a174,174 0 1,0 0,348 z"/>
  </g>
  
  <g transform="rotate(45 256 256)" fill="#bab468">
    <path d="M 186 50 L 326 50 L 306 80 L 206 80 Z"/>
    <path d="M 208 90 L 304 90 L 298 140 L 214 140 Z"/>
    <path d="M 212 150 L 300 150 L 292 220 L 220 220 Z"/>
    <path d="M 150 230 L 362 230 L 362 260 L 150 260 Z"/>
    <path d="M 204 270 L 308 270 L 321 380 L 191 380 Z"/>
    <path d="M 185 390 Q 256 440 327 390 Z"/>
    <circle cx="256" cy="415" r="25"/>
    <circle cx="256" cy="455" r="12"/>
  </g>
</svg>
